<?xml version="1.0" encoding="UTF-8" standalone="no"?>
<svg width="100%" height="200px" viewBox="0 -60 400 484" version="1.1" xmlns="http://www.w3.org/2000/svg" xmlns:xlink="http://www.w3.org/1999/xlink">
	<linearGradient x1="50%" y1="0%" x2="50%" y2="100%" id="fill">
		<stop stop-color="#FBB040" offset="0%"></stop>
		<stop stop-color="#FF3527" offset="100%"></stop>
	</linearGradient>
	<linearGradient x1="0%" y1="50%" x2="100%" y2="50%" id="white">
		<stop stop-color="rgba(255, 255, 255, 0.0)" offset="0%"></stop>
		<stop stop-color="rgba(255, 255, 255, 0.3)" offset="50%"></stop>
		<stop stop-color="rgba(255, 255, 255, 0.0)" offset="100%"></stop>
	</linearGradient>
	<rect width="4000" height="484" y="-60" x="-1800" fill="url(#fill)" />
	<text font-family="monospace" font-size="60" fill="url(#white)">
		<tspan text-anchor="middle" x="200" y="-10">M85 32C115 68 239 170 281 192 311 126 274 43 244 0c97 58</tspan>
		<tspan text-anchor="middle" x="200"  y="60">146 167 121 254 28 28 40 89 29 108 -25-45-67-3-93-24C176</tspan>
		<tspan text-anchor="middle" x="200" y="130">409 24 296 0 233c68 56 170 65 22627C 165 217 56 89 36 54</tspan>
		<tspan text-anchor="middle" x="200" y="200">c42 38 116 96 161 122C159 137 108 72 85 32zM85 32C115 68</tspan>
		<tspan text-anchor="middle" x="200" y="270">239 170 281 192 311 126 274 43 244 0c97 58 146 167 121  </tspan>
		<tspan text-anchor="middle" x="200" y="340">254 28 28 40 89 29 108 -25-45-67-39-93-24C176 409 24 296</tspan>
		<tspan text-anchor="middle" x="200" y="410">0 233c68 56 170 65 226 27C165 217 56 89 36 54c42 38 116 </tspan>
	</text>
	<path d="M85 32C115 68 239 170 281 192 311 126 274 43 244 0c97 58 146 167 121 254 28 28 40 89 29 108 -25-45-67-39-93-24C176 409 24 296 0 233c68 56 170 65 226 27C165 217 56 89 36 54c42 38 116 96 161 122C159 137 108 72 85 32z" fill="#fff" />
</svg>
